<svg width="100" height="100" viewBox="0 0 100 100" fill="none" xmlns="http://www.w3.org/2000/svg">
<path d="M47.2339 6.58893C48.2631 4.13727 51.7369 4.13728 52.7661 6.58893L58.4924 20.2288C59.1692 21.8412 61.0761 22.5352 62.631 21.7352L75.7851 14.9672C78.1495 13.7507 80.8105 15.9836 80.0231 18.5232L75.6421 32.6527C75.1242 34.323 76.1388 36.0803 77.8442 36.467L92.2712 39.7376C94.8644 40.3255 95.4676 43.7465 93.2319 45.1859L80.7936 53.1936C79.3232 54.1402 78.9709 56.1386 80.0288 57.531L88.9782 69.31C90.5867 71.4272 88.8498 74.4356 86.212 74.1011L71.5364 72.2402C69.8016 72.0202 68.2472 73.3246 68.1625 75.0712L67.4468 89.847C67.3181 92.5028 64.0538 93.6909 62.2481 91.7391L52.2021 80.8803C51.0146 79.5967 48.9854 79.5967 47.7979 80.8803L37.7518 91.7391C35.9462 93.6909 32.6819 92.5028 32.5532 89.847L31.8375 75.0712C31.7528 73.3246 30.1984 72.0202 28.4636 72.2402L13.788 74.1011C11.1502 74.4356 9.41328 71.4272 11.0218 69.31L19.9712 57.531C21.0291 56.1386 20.6767 54.1402 19.2064 53.1936L6.7681 45.1858C4.53242 43.7465 5.13565 40.3255 7.72878 39.7376L22.1558 36.467C23.8612 36.0803 24.8758 34.323 24.3579 32.6527L19.9769 18.5232C19.1895 15.9836 21.8505 13.7507 24.2149 14.9672L37.369 21.7352C38.9239 22.5352 40.8308 21.8412 41.5076 20.2288L47.2339 6.58893Z" fill="#0C0F1E"/>
<g clip-path="url(#clip0_391_324)">
<path d="M50.0064 37.6133C45.0019 37.6083 40.0579 38.7155 35.5273 40.8559C30.9968 42.9963 26.9913 46.1172 23.7969 49.9957C26.9899 53.8764 30.9949 56.9991 35.5257 59.1406C40.0565 61.2822 45.0012 62.3898 50.0064 62.3843C55.0107 62.3889 59.9542 61.2809 64.4839 59.1393C69.0135 56.9978 73.0175 53.8756 76.2099 49.9957C73.0164 46.1176 69.012 42.997 64.4825 40.8566C59.953 38.7162 55.0101 37.6088 50.0064 37.6133V37.6133Z" fill="#F3F3F5" stroke="#0C0F1E" stroke-width="2" stroke-miterlimit="10"/>
</g>
<defs>
<clipPath id="clip0_391_324">
<rect width="54" height="26" fill="white" transform="translate(23 37)"/>
</clipPath>
</defs>
</svg>
