<svg width="91" height="91" viewBox="0 0 91 91" fill="none" xmlns="http://www.w3.org/2000/svg">
<path fill-rule="evenodd" clip-rule="evenodd" d="M48.181 2.63146C47.1427 0.122852 43.6385 0.122845 42.6003 2.63145L36.8239 16.5882C36.1411 18.238 34.2175 18.9482 32.649 18.1296L19.3797 11.2043C16.9947 9.95957 14.3103 12.2443 15.1047 14.843L19.524 29.3008C20.0464 31.0098 19.023 32.808 17.3026 33.2036L2.74928 36.5503C0.133445 37.1518 -0.475059 40.6523 1.7802 42.125L14.3274 50.3189C15.8106 51.2874 16.1661 53.3323 15.0989 54.757L6.07119 66.8096C4.44853 68.976 6.20062 72.0543 8.86153 71.712L23.6656 69.8079C25.4156 69.5828 26.9837 70.9175 27.0691 72.7047L27.7911 87.8237C27.9209 90.5413 31.2137 91.757 33.0352 89.7599L43.1692 78.6488C44.3671 77.3353 46.4141 77.3353 47.612 78.6488L57.746 89.7598C59.5675 91.757 62.8604 90.5413 62.9902 87.8238L63.7122 72.7047C63.7976 70.9175 65.3656 69.5828 67.1156 69.8079L81.9197 71.712C84.5806 72.0543 86.3327 68.976 84.7101 66.8097L75.6823 54.757C74.6152 53.3323 74.9706 51.2874 76.4538 50.3189L89.001 42.1251C91.2563 40.6523 90.6478 37.1518 88.032 36.5503L73.4786 33.2036C71.7583 32.808 70.7348 31.0098 71.2572 29.3008L75.6766 14.843C76.4709 12.2444 73.7866 9.95957 71.4015 11.2043L58.1322 18.1296C56.5637 18.9482 54.6402 18.238 53.9573 16.5882L48.181 2.63146ZM30.7912 37.6947C35.3614 35.5046 40.3487 34.3716 45.3971 34.3768C50.4445 34.3721 55.4307 35.5053 59.9999 37.6955C64.5691 39.8856 68.6085 43.0787 71.83 47.0468C68.6097 51.0168 64.5706 54.2116 60.0013 56.4029C55.432 58.5942 50.4452 59.728 45.3971 59.7232C40.348 59.7289 35.36 58.5956 30.7895 56.4042C26.2191 54.2129 22.179 51.0177 18.958 47.0468C22.1805 43.0782 26.221 39.8849 30.7912 37.6947Z" fill="#0C0F1E"/>
</svg>
