<svg width="105" height="114" viewBox="0 0 105 114" fill="none" xmlns="http://www.w3.org/2000/svg">
<path d="M62.8593 101.725C62.5585 100.562 62.5288 99.3448 62.7726 98.1682C62.9972 97.1642 63.4983 96.2446 64.2183 95.515C64.9324 94.7842 65.8413 94.2779 66.8349 94.0572C67.817 93.8045 68.8503 93.8399 69.8131 94.1593C70.7865 94.5061 71.6432 95.1225 72.2852 95.9378C72.9716 96.9087 73.454 98.0109 73.7026 99.1766C73.9512 100.342 73.9608 101.547 73.7309 102.717C73.5093 103.722 73.0077 104.642 72.2852 105.37C71.561 106.079 70.6596 106.577 69.6769 106.811C68.6942 107.045 67.667 107.005 66.7048 106.696C65.7813 106.338 64.9684 105.739 64.3484 104.962C63.6098 104.014 63.1 102.906 62.8593 101.725ZM64.305 101.375C64.4921 102.317 64.8874 103.204 65.4615 103.97C65.9252 104.588 66.5587 105.054 67.2831 105.311C67.8055 105.498 68.3615 105.569 68.9134 105.519C69.4653 105.469 70.0001 105.301 70.4815 105.024C70.963 104.747 71.3797 104.369 71.7034 103.916C72.0271 103.462 72.2501 102.944 72.3575 102.396C72.5564 101.441 72.5317 100.453 72.2852 99.5094C72.0938 98.5665 71.6935 97.6795 71.1142 96.9145C70.6505 96.2971 70.017 95.8307 69.2926 95.5734C68.6021 95.3397 67.86 95.3094 67.153 95.4859C66.424 95.6489 65.7597 96.0271 65.2447 96.5723C64.7298 97.1176 64.3875 97.8051 64.2616 98.5473C64.0554 99.4803 64.0702 100.449 64.305 101.375Z" fill="#0C0F1E"/>
<path d="M59.6047 95.457L58.9252 108.169L54.6605 107.877C53.817 107.863 52.991 107.633 52.2607 107.207C51.6905 106.861 51.2332 106.354 50.9451 105.749C50.6645 105.098 50.5454 104.387 50.5981 103.679C50.6286 102.973 50.8216 102.285 51.1619 101.667C51.4912 101.067 51.996 100.583 52.6076 100.282C53.3715 99.9288 54.2138 99.783 55.0508 99.8596L58.1012 100.035L58.0145 101.405L55.0219 101.23C54.4596 101.181 53.8938 101.271 53.3738 101.492C52.9684 101.69 52.6347 102.012 52.4197 102.411C52.2118 102.828 52.0936 103.285 52.0727 103.752C52.0293 104.247 52.0985 104.746 52.2751 105.21C52.4415 105.627 52.7418 105.976 53.1281 106.201C53.6243 106.491 54.1883 106.642 54.7617 106.638L57.4362 106.784L58.0434 95.457H59.6047Z" fill="#0C0F1E"/>
<path d="M49.3239 94.5533L45.4784 106.668L38.25 104.335L38.6548 103.023L44.4375 104.904L45.7386 100.807L40.3173 99.1308L40.7366 97.8334L46.1579 99.5827L47.459 95.4572L41.5606 93.562L41.9799 92.25L49.3239 94.5533Z" fill="#0C0F1E"/>
<path d="M24.8984 96.4771L31.8811 85.8789L33.1099 86.7099L33.3557 98.8679H33.4569L38.936 90.5584L40.2082 91.404L33.2545 102.046L32.0257 101.215L31.8088 89.0423H31.7076L26.1996 97.381L24.8984 96.4771Z" fill="#0C0F1E"/>
<path d="M27.196 80.8066L16.7437 87.9352L12.5078 81.6375L13.6354 80.8795L17.0183 85.9235L20.5458 83.5035L17.481 78.9406L18.5941 78.168L21.6879 82.7163L26.3719 79.5237L27.196 80.8066Z" fill="#0C0F1E"/>
<path d="M12.6811 64.6239C13.8053 64.2169 15.0087 64.082 16.1941 64.2303C17.2024 64.3626 18.1538 64.7767 18.9409 65.4257C19.6988 66.0968 20.2638 66.9611 20.5767 67.928C20.8895 68.895 20.9387 69.9289 20.7191 70.9216C20.4755 71.9176 19.9477 72.8197 19.2011 73.5165C18.3352 74.3403 17.2907 74.9492 16.1507 75.295C15.0315 75.702 13.8328 75.8368 12.6522 75.6886C11.6431 75.5594 10.6908 75.145 9.90538 74.4932C9.12705 73.8358 8.55455 72.9648 8.2573 71.9858C7.93017 71.0184 7.88007 69.9776 8.11274 68.9828C8.35426 68.0024 8.85372 67.1059 9.55842 66.3879C10.446 65.5586 11.5163 64.9541 12.6811 64.6239ZM13.1437 66.0817C12.224 66.3701 11.3828 66.869 10.6861 67.5395C10.1207 68.0662 9.71469 68.7434 9.51505 69.493C9.34625 70.2074 9.38134 70.9554 9.61625 71.6505C9.82933 72.3599 10.2471 72.9892 10.8162 73.4582C11.4054 73.957 12.1318 74.2622 12.8979 74.3329C13.8412 74.4338 14.7948 74.3192 15.6881 73.9976C16.6064 73.7059 17.4468 73.2074 18.1458 72.5398C18.7152 72.0224 19.1222 71.3485 19.3168 70.6009C19.4925 69.8823 19.4573 69.1277 19.2156 68.4288C18.9953 67.7266 18.5847 67.1005 18.0301 66.6211C17.4308 66.1393 16.7096 65.8363 15.9483 65.7464C15.0037 65.6252 14.044 65.725 13.1437 66.038V66.0817Z" fill="#0C0F1E"/>
<path d="M18.6065 60.8485L5.98568 61.2275L5.85557 56.927C5.79871 56.0824 5.9476 55.2366 6.28927 54.4633C6.57223 53.8502 7.03697 53.3409 7.6193 53.0055C8.22849 52.6737 8.90762 52.4937 9.59989 52.4807C10.2796 52.4588 10.9543 52.6039 11.566 52.9035C12.18 53.1867 12.6871 53.6622 13.0117 54.2592C13.3891 55.0087 13.5825 55.8386 13.5755 56.6792L13.6767 60.1487H12.3033L12.1877 56.7229C12.1984 56.159 12.0796 55.6002 11.8407 55.0902C11.6615 54.7055 11.3547 54.3961 10.9733 54.2155C10.5656 54.0288 10.1193 53.9438 9.67217 53.9677C9.21348 53.9726 8.76254 54.0875 8.3566 54.303C7.97293 54.5039 7.67115 54.834 7.50365 55.236C7.28651 55.7766 7.19264 56.3595 7.22897 56.9416L7.31571 59.6531L18.5631 59.3032L18.6065 60.8485ZM12.8238 55.0173L18.3896 51.7227V53.5012L12.8093 56.7666L12.8238 55.0173Z" fill="#0C0F1E"/>
<path d="M17.3486 33.5296C18.4492 33.9466 19.4389 34.6153 20.2399 35.4831C20.9813 36.2314 21.4846 37.1856 21.6856 38.2238C21.8603 39.205 21.7551 40.2161 21.382 41.1394C21.0268 42.0991 20.4037 42.9347 19.588 43.5451C18.7722 44.1556 17.7986 44.515 16.7848 44.5798C15.5979 44.6553 14.4098 44.4506 13.3151 43.9821C12.2157 43.5698 11.226 42.9061 10.4238 42.0432C9.69903 41.3057 9.19758 40.3753 8.97807 39.3608C8.81752 38.3549 8.92729 37.324 9.29596 36.3753C9.66463 35.4267 10.2787 34.5951 11.0743 33.967C11.9199 33.3499 12.9235 32.9906 13.9657 32.9319C15.1235 32.8725 16.2798 33.0768 17.3486 33.5296ZM16.8137 34.9146C15.937 34.5416 14.9883 34.3722 14.038 34.4189C13.2726 34.4511 12.5335 34.7096 11.9128 35.1624C11.3209 35.6007 10.8688 36.2036 10.6117 36.8972C10.3405 37.5817 10.2653 38.3292 10.3948 39.0547C10.5392 39.8166 10.9068 40.5174 11.4502 41.0665C12.1153 41.7512 12.926 42.2746 13.8211 42.5972C14.6962 42.9766 15.6452 43.151 16.5968 43.1074C17.3612 43.0581 18.0969 42.7956 18.722 42.3493C19.3054 41.9025 19.7556 41.3023 20.0231 40.6146C20.2843 39.9479 20.3593 39.2219 20.2399 38.5153C20.0782 37.7364 19.7025 37.0191 19.1557 36.4452C18.4795 35.7918 17.6705 35.2944 16.7848 34.9874L16.8137 34.9146Z" fill="#0C0F1E"/>
<path d="M24.3287 34.4335L14.2812 26.7363L18.8641 20.6719L19.9483 21.4882L16.2908 26.3427L19.6881 28.9376L22.9987 24.5642L24.0685 25.3951L20.7579 29.7686L25.254 33.209L24.3287 34.4335Z" fill="#0C0F1E"/>
<path d="M30.3575 27.0121L22.4062 17.1282L28.2757 12.332L29.1287 13.3962L24.4447 17.2302L27.1336 20.5686L31.3839 17.0845L32.2369 18.1487L27.9866 21.6182L31.543 25.9916L30.3575 27.0121Z" fill="#0C0F1E"/>
<path d="M37.8502 21.1962L32.5156 9.66496L39.4115 6.41406L39.9754 7.65319L34.4673 10.2043L36.2744 14.1404L41.4355 11.6621L41.9993 12.9013L36.8527 15.3212L38.6598 19.2427L44.269 16.6041L44.8329 17.8432L37.8502 21.1962Z" fill="#0C0F1E"/>
<path d="M46.6815 17.3188L44.3828 4.79627L48.5753 4.02364C49.3873 3.82285 50.2354 3.82285 51.0474 4.02364C51.6912 4.21651 52.2611 4.60307 52.681 5.13157C53.1033 5.70181 53.3812 6.36735 53.4906 7.07044C53.6383 7.74677 53.6084 8.45025 53.4039 9.11136C53.2073 9.75354 52.8122 10.3155 52.2762 10.7149C51.6016 11.2116 50.818 11.5366 49.9921 11.6625L46.6092 12.3039L46.3489 10.9336L49.7029 10.3068C50.2537 10.225 50.7809 10.0262 51.2498 9.72364C51.6148 9.49589 51.8945 9.15233 52.0449 8.74691C52.1754 8.26989 52.1754 7.76613 52.0449 7.28911C51.974 6.83061 51.7956 6.3958 51.5245 6.02083C51.2623 5.67952 50.8969 5.43383 50.4836 5.32108C49.9323 5.1885 49.3579 5.1885 48.8066 5.32108L46.1321 5.83131L48.185 16.9981L46.6815 17.3188ZM51.4811 10.5983L55.5724 15.6569L53.8231 16.0359L49.7897 10.919L51.4811 10.5983Z" fill="#0C0F1E"/>
<path d="M64.5641 6.74921C64.5478 6.46338 64.4695 6.18464 64.3346 5.93272C64.1997 5.6808 64.0115 5.46187 63.7834 5.29141C63.2339 4.87784 62.5744 4.63925 61.8896 4.60624C61.4019 4.56313 60.9106 4.61763 60.4439 4.7666C60.0473 4.89121 59.6923 5.12316 59.4174 5.43719C59.1599 5.73366 59.0074 6.10799 58.9837 6.50138C58.9581 6.77225 59.0082 7.04494 59.1283 7.28859C59.2733 7.54169 59.4705 7.76044 59.7066 7.93003C59.9415 8.11353 60.199 8.26545 60.4728 8.38194C60.716 8.5016 60.9672 8.6039 61.2245 8.68808L62.4678 9.14C62.8579 9.27671 63.2393 9.43737 63.6099 9.62108C64.0116 9.8067 64.3862 10.047 64.7231 10.3354C65.0791 10.6272 65.3657 10.9958 65.5616 11.4142C65.7895 11.8894 65.8749 12.4214 65.8074 12.9449C65.7445 13.6104 65.4823 14.2408 65.0556 14.7525C64.6252 15.2991 64.0555 15.7173 63.4075 15.9625C62.5992 16.2395 61.7416 16.3389 60.892 16.2541C60.091 16.2082 59.3082 15.9947 58.5934 15.6272C57.9995 15.3144 57.5001 14.8461 57.1477 14.2715C56.8009 13.7131 56.6249 13.0641 56.6417 12.4055L58.2175 12.5221C58.2045 12.9633 58.3423 13.3957 58.6079 13.7467C58.8755 14.0894 59.2232 14.3598 59.6198 14.5339C60.0809 14.7228 60.5689 14.836 61.0655 14.8692C61.6019 14.9181 62.1425 14.8586 62.6558 14.6942C63.0968 14.5627 63.4958 14.3164 63.8123 13.9799C64.1123 13.6578 64.2913 13.2401 64.3183 12.7991C64.3642 12.4266 64.2658 12.0506 64.0436 11.7495C63.8121 11.4479 63.5155 11.2036 63.1762 11.0351C62.7846 10.8265 62.3788 10.6462 61.9618 10.4958L60.5162 9.92721C59.6668 9.62396 58.8995 9.12475 58.2753 8.46941C58.0099 8.18607 57.81 7.84695 57.69 7.47642C57.57 7.10589 57.5329 6.71315 57.5814 6.32645C57.6134 5.65723 57.8623 5.01708 58.2898 4.5042C58.7381 4.00107 59.3049 3.62002 59.9379 3.39627C60.647 3.1453 61.4013 3.05084 62.1498 3.11928C62.8938 3.16578 63.6189 3.37469 64.2749 3.73156C64.863 4.03285 65.3617 4.48547 65.7206 5.04358C66.0529 5.56824 66.21 6.18637 66.1688 6.80752L64.5641 6.74921Z" fill="#0C0F1E"/>
<path d="M77.5469 12.8438C100.331 23.5732 110.552 52.2044 100.273 75.2668C96.977 82.5816 91.8688 88.9174 85.4403 93.6642" stroke="#0C0F1E" stroke-miterlimit="10"/>
<path d="M57.8289 58.5148C59.4257 58.5148 60.7202 57.2094 60.7202 55.5992C60.7202 53.989 59.4257 52.6836 57.8289 52.6836C56.232 52.6836 54.9375 53.989 54.9375 55.5992C54.9375 57.2094 56.232 58.5148 57.8289 58.5148Z" fill="#0C0F1E"/>
</svg>
